# xmcd
#
# Track frame offsets: 
#        150
#        18761
#        34787
#        47939
#        65252
#        82980
#        100620
#        113571
#        130394
#        145426
#        162800
#        183722
#
# Disc length: 2684 seconds
#
# Revision: 0
# Processed by: cddbd v1.5.2PL0 Copyright (c) Steve Scherf et al.
# Submitted via: ExactAudioCopy v1.0b6
#
DISCID=990a7a0c
DTITLE=Shari Puorto - My Obsession
DYEAR=1900
DGENRE=Blues
TTITLE0=It's a Damn Shame
TTITLE1=Home of the Blues
TTITLE2=Six Months Sober
TTITLE3=Sugar Daddy
TTITLE4=My Obsession
TTITLE5=Old Silo Road
TTITLE6=Workin the Room
TTITLE7=Better Left Unsaid
TTITLE8=What's the Matter with the World?
TTITLE9=All About You
TTITLE10=Turned to Stone
TTITLE11=When a Man Loves a Woman
EXTD=
EXTT0=
EXTT1=
EXTT2=
EXTT3=
EXTT4=
EXTT5=
EXTT6=
EXTT7=
EXTT8=
EXTT9=
EXTT10=
EXTT11=
PLAYORDER=
